<?xml version="1.0" encoding="utf-8"?>
<!-- Generator: Adobe Illustrator 24.0.1, SVG Export Plug-In . SVG Version: 6.00 Build 0)  -->
<svg version="1.1" id="Layer_1" xmlns="http://www.w3.org/2000/svg" xmlns:xlink="http://www.w3.org/1999/xlink" x="0px" y="0px"
	 viewBox="0 0 2717 1767" style="enable-background:new 0 0 2717 1767;" xml:space="preserve">
<style type="text/css">
	.st0{fill:url(#SVGID_1_);}
	.st1{fill:url(#SVGID_2_);}
	.st2{fill:#804B9D;}
	.st3{fill:url(#SVGID_3_);}
	.st4{fill:url(#SVGID_4_);}
	.st5{fill:url(#SVGID_5_);}
	.st6{fill:#090B0E;}
	.st7{fill:url(#SVGID_6_);}
	.st8{fill:url(#SVGID_7_);}
	.st9{font-family:'BritannicBold';}
	.st10{font-size:332.3028px;}
</style>
<g>
	<g>
		<linearGradient id="SVGID_1_" gradientUnits="userSpaceOnUse" x1="351.75" y1="857.1173" x2="678.5674" y2="857.1173">
			<stop  offset="0" style="stop-color:#F36E21"/>
			<stop  offset="1" style="stop-color:#EF4023"/>
		</linearGradient>
		<path class="st0" d="M536.5,813.1c-32.9-31.4-65.8-62.9-100.8-96.3c15.7-23.8,29.9-45.3,47.9-72.7c24.3,26,45,49.2,66.6,71.4
			c37.9,38.7,76.6,76.6,114.4,115.4c17.1,17.6,18.7,37.8,2.7,54.1c-60.6,61.2-122.2,121.6-186.3,185c-14.8-21.9-29.2-43.1-45.8-67.8
			c34.9-32.7,68.6-64.3,102.3-95.9c-1-1.8-2-3.7-3-5.5c-60.3,0-120.5,0-182.9,0c0-27.9,0-53.4,0-81.3c61.1,0,121.7,0,182.2,0
			C534.8,817.5,535.6,815.3,536.5,813.1z"/>
		<path class="st6" d="M516.3,613.1c23.3-15.3,44.3-29,66.4-43.5c48.7,48.6,95.9,95.6,144.8,144.4c40.8-40,82.2-77.5,119.8-118.5
			c19.6-21.3,35-21.6,55.2-4.6c9.6,8,20.1,15,32.1,24c-46,46.8-90.3,92-134.6,137.1c-15.5,15.7-30.7,31.7-46.9,46.5
			c-16.9,15.5-36,16-52.2-0.1C640.1,738.2,580.1,677.3,516.3,613.1z"/>
		<path class="st6" d="M935,1100.1c-4.7,6.2-5.5,7.8-6.8,8.9c-50.7,42.1-51.4,42.7-97.3-3.1c-33.5-33.4-65.1-68.8-99.4-105.3
			c-39.8,39.9-74.2,74.5-108.7,108.9c-43.7,43.5-58.6,42.6-104.7-7.8c35.8-35.5,71.6-71.2,107.5-106.8c24-23.9,47.8-48,72.2-71.5
			c18.1-17.4,37.2-19.6,54-3.4C813.3,979.2,873.7,1039.6,935,1100.1z"/>
		<linearGradient id="SVGID_2_" gradientUnits="userSpaceOnUse" x1="678.765" y1="585.9166" x2="774.0598" y2="585.9166">
			<stop  offset="0" style="stop-color:#F36E21"/>
			<stop  offset="1" style="stop-color:#EF4023"/>
		</linearGradient>
		<path class="st1" d="M774.1,586c-0.4,26.9-22.2,48.4-48.3,47.7c-25.2-0.7-48.2-25.2-47-50.1c1.2-25.4,22.8-45.9,48-45.6
			C754.8,538.4,774.5,558.4,774.1,586z"/>
		<linearGradient id="SVGID_3_" gradientUnits="userSpaceOnUse" x1="678.87" y1="1133.0697" x2="774.0579" y2="1133.0697">
			<stop  offset="0" style="stop-color:#F36E21"/>
			<stop  offset="1" style="stop-color:#EF4023"/>
		</linearGradient>
		<path class="st3" d="M774,1134.7c-0.5,27.8-21.3,47.1-49.6,46c-25.6-1-46.4-23.2-45.6-48.5c0.8-24.9,23.6-47,48-46.8
			C753.8,1085.6,774.5,1107.4,774,1134.7z"/>
	</g>
	<g>
		<text transform="matrix(1 0 0 1 846.8145 956.3633)" class="st6 st9 st10">AI FASHION</text>
	</g>
</g>
</svg>
