<svg id="IGA_Logo" data-name="IGA Logo" xmlns="http://www.w3.org/2000/svg" width="40" height="20" viewBox="0 0 105.3 67.264">
  <g id="Group_2" data-name="Group 2">
    <path id="Path_1" data-name="Path 1" d="M64.868,79.816c28.895,0,52.318-15.057,52.318-33.633S93.763,12.552,64.868,12.552,12.552,27.61,12.552,46.183,35.975,79.816,64.868,79.816" transform="translate(-12.552 -12.552)" fill="#e4291b"/>
    <g id="Group_1" data-name="Group 1" transform="translate(10.623 14.693)">
      <path id="Path_2" data-name="Path 2" d="M50.22,30.009,35.737,65.88H25.173L39.656,30.009Z" transform="translate(-25.173 -30.009)" fill="#fff"/>
      <path id="Path_3" data-name="Path 3" d="M100.8,40.386c.7-1.73,1.071-2.435,3.2-2.435,2.161,0,1.764,1.1,1.225,2.435l-2.359,5.792H98.466Zm10.731-10.377H101.368c-6.94,0-9.107,5.367-9.107,5.367L79.946,65.88H90.509l4.6-11.121h4.264L94.861,65.88h10.564l11.8-29.219c1.975-4.892-1.373-6.655-5.688-6.652" transform="translate(-33.847 -30.009)" fill="#fff"/>
      <path id="Path_4" data-name="Path 4" d="M60.472,57.363c-2.257,0-3.077-.843-2.049-3.148L63.47,41.472a3.664,3.664,0,0,1,3.287-2.3l14.237.051,3.835-9.15s-18.394-.046-21.648,0c-5.686.08-7.73,5.313-7.73,5.313l-9.5,23.185c-1.653,4.093.619,7.364,4.709,7.364H70.193l7.956-19.837H66.091l-2.907,7.054h4.031l-1.653,4.214Z" transform="translate(-28.377 -30.015)" fill="#fff"/>
      <path id="Path_5" data-name="Path 5" d="M118.747,69.5a1.867,1.867,0,0,1-1.831,1.977v-.008a1.973,1.973,0,1,1,1.831-1.969m.74,0a2.574,2.574,0,1,0-2.57,2.567,2.479,2.479,0,0,0,2.57-2.567m-3,.218h.279l.638,1.161h.7l-.705-1.207a.648.648,0,0,0,.664-.721c0-.63-.42-.835-1.132-.835H115.9v2.763h.59Zm0-.468v-.665h.414c.224,0,.529.02.529.306,0,.3-.156.359-.421.359Z" transform="translate(-39.293 -35.856)" fill="#fff"/>
    </g>
  </g>
</svg>
