<?xml version="1.0" encoding="utf-8"?>
<!-- Generator: Adobe Illustrator 26.3.1, SVG Export Plug-In . SVG Version: 6.00 Build 0)  -->
<svg version="1.1" id="Layer_1" xmlns="http://www.w3.org/2000/svg" xmlns:xlink="http://www.w3.org/1999/xlink" x="0px" y="0px"
	 viewBox="0 0 140 140" style="enable-background:new 0 0 140 140;" xml:space="preserve">
<style type="text/css">
	.st0{fill:#010101;}
</style>
<path class="st0" d="M-29.5,29.9c0.2-0.1,0.3-0.2,0.5-0.3C-29.2,29.7-29.4,29.8-29.5,29.9z"/>
<path class="st0" d="M-30,30.4c0.1-0.1,0.3-0.3,0.4-0.4C-29.8,30.1-29.9,30.2-30,30.4z"/>
<path class="st0" d="M-29,29.6c0.2-0.1,0.3-0.1,0.5-0.2C-28.7,29.5-28.9,29.6-29,29.6z"/>
<path class="st0" d="M-28.4,29.4c0.2,0,0.4-0.1,0.5-0.1C-28,29.4-28.2,29.4-28.4,29.4z"/>
<path class="st0" d="M-27.6,29.4c0,0,0.1,0,0.1,0C-27.5,29.4-27.5,29.4-27.6,29.4z"/>
<path class="st0" d="M-146.5,82.4c0.1,0,0.2-0.1,0.2-0.1C-146.4,82.3-146.4,82.4-146.5,82.4z"/>
<path class="st0" d="M-145.9,82.2c0.1,0,0.2,0,0.3,0C-145.7,82.2-145.8,82.2-145.9,82.2z"/>
<path class="st0" d="M-147.1,82.7c0.1,0,0.1-0.1,0.2-0.1C-147,82.7-147.1,82.7-147.1,82.7z"/>
<path d="M100.9,123.7c-1.3,0-2.5-0.4-3.6-1.2L70,102.7l-27.2,19.8c-2.2,1.6-5,1.6-7.2,0c-2.2-1.6-3.1-4.3-2.2-6.9l10.4-32L16.4,63.8
	c-2.2-1.6-3.1-4.3-2.2-6.9c0.8-2.6,3.1-4.3,5.9-4.3h33.7l10.4-32c0.8-2.6,3.1-4.3,5.9-4.3s5,1.7,5.9,4.3l10.4,32h33.7
	c2.7,0,5,1.7,5.9,4.3c0.8,2.6,0,5.3-2.2,6.9L96.3,83.6l10.4,32c0.8,2.6,0,5.3-2.2,6.9C103.4,123.3,102.1,123.7,100.9,123.7z
	 M70,96.2c1.3,0,2.5,0.4,3.6,1.2l26.7,19.4L90.1,85.4c-0.8-2.5,0.1-5.3,2.2-6.9l26.7-19.4h-33c-2.7,0-5-1.7-5.9-4.3L70,23.4
	L59.8,54.8c-0.8,2.5-3.2,4.3-5.9,4.3h-33l26.7,19.4c2.2,1.6,3.1,4.3,2.2,6.9l-10.2,31.4l26.7-19.4C67.5,96.6,68.7,96.2,70,96.2z"/>
<g>
	<path d="M65.2,79.5c0.4,3.3,2.2,4.7,4.9,4.7c2.5,0,4.4-1.4,4.4-4.6c0-3.1-2.1-4.7-5.1-4.7c-2.4,0-4.6,0.4-6.7,1.5L61,76.1l3.3-16.2
		h15.4v5.1H68.5l-1.2,5.9c1.1-0.2,2.6-0.5,3.8-0.5c5.4,0,9.7,3,9.7,9c0,6.2-4.4,9.7-10.6,9.7c-6.6,0-10.5-2.7-10.9-9.5H65.2z"/>
</g>
</svg>
