<?xml version="1.0" encoding="utf-8"?>
<!-- Generator: Adobe Illustrator 26.3.1, SVG Export Plug-In . SVG Version: 6.00 Build 0)  -->
<svg version="1.1" id="Layer_1" xmlns="http://www.w3.org/2000/svg" xmlns:xlink="http://www.w3.org/1999/xlink" x="0px" y="0px"
	 viewBox="0 0 140 140" style="enable-background:new 0 0 140 140;" xml:space="preserve">
<style type="text/css">
	.st0{fill:none;}
	.st1{fill:#010101;}
</style>
<polygon class="st0" points="65,7.5 65,7.5 65,7.5 65,7.5 "/>
<path class="st1" d="M106.9,70.4c0.1,0,0.2,0.1,0.4,0.1C107.1,70.5,107,70.4,106.9,70.4z"/>
<path class="st1" d="M125.9,29.9c0.2-0.1,0.3-0.2,0.5-0.3C126.2,29.7,126,29.8,125.9,29.9z"/>
<path class="st1" d="M106.3,70.3c0.1,0,0.2,0,0.4,0C106.5,70.3,106.4,70.3,106.3,70.3z"/>
<path class="st1" d="M125.3,30.4c0.1-0.1,0.3-0.3,0.4-0.4C125.6,30.1,125.5,30.2,125.3,30.4z"/>
<path class="st1" d="M108,71c0.2,0.1,0.3,0.3,0.5,0.5C108.3,71.2,108.2,71.1,108,71z"/>
<path class="st1" d="M104.7,70.6c0.1,0,0.1,0,0.2-0.1C104.8,70.6,104.8,70.6,104.7,70.6z"/>
<path class="st1" d="M105.8,70.3c0.1,0,0.1,0,0.2,0C105.9,70.3,105.9,70.3,105.8,70.3z"/>
<path class="st1" d="M105.2,70.4c0.1,0,0.1,0,0.2-0.1C105.4,70.4,105.3,70.4,105.2,70.4z"/>
<path class="st1" d="M107.5,70.6c0.1,0.1,0.2,0.1,0.4,0.2C107.7,70.8,107.6,70.7,107.5,70.6z"/>
<path class="st1" d="M126.3,29.6c0.2-0.1,0.3-0.1,0.5-0.2C126.7,29.5,126.5,29.6,126.3,29.6z"/>
<path class="st1" d="M127,29.4c0.2,0,0.4-0.1,0.5-0.1C127.3,29.4,127.2,29.4,127,29.4z"/>
<path class="st1" d="M130,31.9c-0.2-0.9-0.9-1.7-1.8-1.9c-0.2-0.1-0.4-0.1-0.7-0.1c-0.7,0-1.4,0.3-1.8,0.8
	C112,45.6,87.2,54.6,87,54.7c-0.1,0.1-0.3,0.1-0.4,0.2C73.7,62.3,66.1,71.7,64,82.6c-3.2,16.8,7.7,31.1,8.2,31.6
	c0.3,0.4,0.8,0.7,1.3,0.9l0.5,0.1l-0.2,0.5c-1.4,4.1-2.6,8.5-3.6,12.9c-0.3,1.3,0.5,2.7,1.9,3c0.2,0,0.4,0.1,0.6,0.1
	c1.2,0,2.2-0.8,2.4-2c5.2-23,16.1-41.3,32.6-54.5c0.5-0.4,0.8-1,0.9-1.7s-0.1-1.3-0.5-1.8c-0.5-0.6-1.2-0.9-2-0.9
	c-0.6,0-1.1,0.2-1.6,0.5c-12.5,10-22.1,23-28.4,38.5l-0.4,0.9l-0.5-0.8c-2.7-4-8.6-14.6-6.3-26.4c1.8-9.4,8.5-17.5,19.9-24.2l0,0
	l0,0c2.2-0.8,22.1-8.3,36.2-21.1l0.7-0.6l0.1,0.9c1.9,13.8,4.6,47.8-10.5,66.6c-6.8,8.5-16.6,12.8-29.2,13c-0.7,0-1.3,0.3-1.8,0.8
	s-0.7,1.1-0.7,1.8c0,1.4,1.1,2.5,2.5,2.5c14.1-0.2,25.2-5.2,33-14.9C139.9,82.8,130.4,34,130,31.9z"/>
<path class="st1" d="M127.8,29.4c0,0,0.1,0,0.1,0C127.9,29.4,127.9,29.4,127.8,29.4z"/>
<path class="st1" d="M34.1,104.5c0.1-0.1,0.2-0.2,0.4-0.3C34.3,104.4,34.2,104.4,34.1,104.5z"/>
<path class="st1" d="M56.5,114.2c-0.1-0.1-0.1-0.1-0.2-0.2C56.4,114.1,56.5,114.1,56.5,114.2z"/>
<path class="st1" d="M45.3,126.4c0.1,0,0.2,0,0.4,0C45.5,126.4,45.4,126.4,45.3,126.4z"/>
<path class="st1" d="M34.7,104.2c0.1-0.1,0.3-0.1,0.4-0.1C35,104.1,34.8,104.1,34.7,104.2z"/>
<path class="st1" d="M35.3,104c0.2,0,0.3-0.1,0.5-0.1C35.6,103.9,35.5,103.9,35.3,104z"/>
<path class="st1" d="M56.2,113.7c0-0.1-0.1-0.1-0.1-0.2C56.1,113.6,56.2,113.6,56.2,113.7z"/>
<path class="st1" d="M56.9,114.6c-0.1-0.1-0.1-0.1-0.2-0.2C56.8,114.5,56.9,114.5,56.9,114.6z"/>
<path class="st1" d="M46.4,126.3c0.1,0,0.2,0,0.3-0.1C46.6,126.2,46.5,126.2,46.4,126.3z"/>
<path class="st1" d="M36,103.9c0,0,0.1,0,0.1,0C36,103.9,36,103.9,36,103.9z"/>
<path class="st1" d="M49.5,125.5c0.1,0,0.2-0.1,0.3-0.1C49.7,125.4,49.6,125.4,49.5,125.5z"/>
<path class="st1" d="M48.7,125.7c0.1,0,0.2-0.1,0.3-0.1C48.8,125.7,48.7,125.7,48.7,125.7z"/>
<path class="st1" d="M50.4,125.1c0.1,0,0.2-0.1,0.2-0.1C50.6,125.1,50.5,125.1,50.4,125.1z"/>
<path class="st1" d="M56,113.1c0-0.1,0-0.1-0.1-0.2C55.9,113,55.9,113.1,56,113.1z"/>
<path class="st1" d="M38,125.9c0.1,0,0.2,0.1,0.4,0.1C38.3,125.9,38.2,125.9,38,125.9z"/>
<path class="st1" d="M33.5,105.2c0.1-0.2,0.3-0.4,0.5-0.5C33.8,104.8,33.6,105,33.5,105.2z"/>
<path class="st1" d="M39.9,126.3C39.9,126.3,39.9,126.3,39.9,126.3C39.9,126.3,39.9,126.3,39.9,126.3z"/>
<path class="st1" d="M8.8,82.4c0.1,0,0.2-0.1,0.2-0.1C9,82.3,8.9,82.4,8.8,82.4z"/>
<path class="st1" d="M10.3,82.7c-0.1,0-0.2,0-0.3,0c-0.7,0-1.4,0.3-1.9,0.8c-0.5,0.6-0.7,1.4-0.6,2.2c5.6,24.9,14.7,40,27,44.8
	c2.7,1,5.6,1.6,8.5,1.6c5.9,0,10.6-2.1,12.9-3.4l0.1-0.1l0.2,0c0,0,0.1,0,0.1,0c0,0,0.1,0,0.1,0c0.6,0,1.1-0.2,1.6-0.6
	c0.5-0.4,0.8-1,0.9-1.7c0.1-0.7-0.1-1.3-0.5-1.8c-9.1-11.2-20.6-19.3-21.1-19.7c-0.4-0.3-0.9-0.5-1.4-0.5c-0.8,0-1.6,0.4-2,1.1
	c-0.8,1.1-0.5,2.7,0.6,3.5c0.1,0.1,9.1,6.5,17.3,15.5l0.5,0.5l-0.6,0.3c-1.9,0.8-5,1.8-8.6,1.8c-2.3,0-4.5-0.4-6.7-1.2
	c-9.8-3.8-17.8-16.6-22.9-37l-0.2-0.7l0.7,0.1c7,1.1,42,7.1,42.3,24.1c0,1.4,1.1,2.5,2.5,2.5l0.1,0c1.4,0,2.5-1.2,2.5-2.5
	C60.8,88.1,12.3,82.9,10.3,82.7z"/>
<path class="st1" d="M58.5,115.2c-0.1,0-0.2,0-0.3,0C58.3,115.2,58.4,115.2,58.5,115.2z"/>
<path class="st1" d="M41.3,126.5c0.1,0,0.2,0,0.4,0C41.5,126.5,41.4,126.5,41.3,126.5z"/>
<path class="st1" d="M9.5,82.2c0.1,0,0.2,0,0.3,0C9.7,82.2,9.6,82.2,9.5,82.2z"/>
<path class="st1" d="M8.3,82.7c0.1,0,0.1-0.1,0.2-0.1C8.4,82.7,8.3,82.7,8.3,82.7z"/>
<path class="st1" d="M57.9,115.1c-0.1,0-0.2,0-0.3-0.1C57.8,115.1,57.8,115.1,57.9,115.1z"/>
<path class="st1" d="M36.5,104c0.1,0,0.1,0,0.2,0C36.6,104,36.5,104,36.5,104z"/>
<path class="st1" d="M57.4,114.9c-0.1,0-0.2-0.1-0.2-0.1C57.2,114.8,57.3,114.9,57.4,114.9z"/>
<polygon class="st1" points="43,126.6 43,126.6 43,126.6 "/>
<path class="st1" d="M44.2,126.5c0.1,0,0.2,0,0.3,0C44.4,126.5,44.3,126.5,44.2,126.5z"/>
<path class="st1" d="M37,104.1c0.1,0,0.1,0,0.2,0.1C37.1,104.2,37.1,104.1,37,104.1z"/>
<path class="st1" d="M107,16.7c0.1,0,0.1-0.1,0.2-0.1C107.2,16.6,107.1,16.7,107,16.7z"/>
<path class="st1" d="M107.6,16.5c0.1,0,0.2,0,0.2-0.1C107.7,16.5,107.6,16.5,107.6,16.5z"/>
<path class="st1" d="M83.1,10.7c0.2,0.1,0.4,0.2,0.6,0.2C83.5,10.9,83.3,10.8,83.1,10.7z"/>
<path class="st1" d="M106.6,17c0.1,0,0.1-0.1,0.2-0.1C106.7,16.9,106.6,17,106.6,17z"/>
<path class="st1" d="M108.1,16.4c0.1,0,0.2,0,0.2,0C108.3,16.4,108.2,16.4,108.1,16.4z"/>
<path class="st1" d="M106.2,17.4c0.1-0.1,0.1-0.1,0.2-0.2C106.3,17.3,106.2,17.3,106.2,17.4z"/>
<path class="st1" d="M88,12.8c0.2,0.1,0.3,0.2,0.5,0.2C88.3,13,88.1,12.9,88,12.8z"/>
<path class="st1" d="M90.1,14c0.2,0.1,0.4,0.2,0.6,0.3C90.5,14.2,90.3,14.1,90.1,14z"/>
<path class="st1" d="M105.9,35.8c-0.1,0-0.1,0-0.2,0C105.8,35.8,105.9,35.8,105.9,35.8z"/>
<path class="st1" d="M105.6,18.4c0-0.1,0.1-0.1,0.1-0.2C105.7,18.3,105.7,18.3,105.6,18.4z"/>
<path class="st1" d="M105.9,17.9c0-0.1,0.1-0.1,0.1-0.2C105.9,17.7,105.9,17.8,105.9,17.9z"/>
<path class="st1" d="M83,17.2c-0.5-0.2-1-0.4-1.5-0.6C82,16.7,82.5,16.9,83,17.2z"/>
<path class="st1" d="M87.2,19.2c-0.5-0.3-1-0.5-1.5-0.8C86.2,18.7,86.7,18.9,87.2,19.2z"/>
<path class="st1" d="M92.7,28c0.1,0,0.2,0,0.2,0C92.9,28,92.8,28,92.7,28z"/>
<path class="st1" d="M89.6,20.6c-0.6-0.4-1.2-0.7-1.8-1.1C88.4,19.8,89,20.2,89.6,20.6z"/>
<path class="st1" d="M80.7,9.9c0.1,0,0.2,0,0.2,0.1C80.8,9.9,80.8,9.9,80.7,9.9z"/>
<path class="st1" d="M85.3,18.2c-0.6-0.3-1.2-0.6-1.9-0.9C84.1,17.6,84.7,17.9,85.3,18.2z"/>
<path class="st1" d="M90.5,29.5c0-0.1,0.1-0.1,0.1-0.2C90.6,29.3,90.5,29.4,90.5,29.5z"/>
<path class="st1" d="M90.8,29c0.1-0.1,0.1-0.1,0.2-0.2C90.9,28.9,90.8,28.9,90.8,29z"/>
<path class="st1" d="M92.2,28.1c0.1,0,0.2,0,0.2-0.1C92.3,28.1,92.2,28.1,92.2,28.1z"/>
<path class="st1" d="M90.2,30c0-0.1,0.1-0.1,0.1-0.2C90.3,29.9,90.3,29.9,90.2,30z"/>
<path class="st1" d="M91.7,28.3c0.1,0,0.1-0.1,0.2-0.1C91.8,28.2,91.7,28.3,91.7,28.3z"/>
<path class="st1" d="M91.2,28.6c0.1,0,0.1-0.1,0.2-0.1C91.3,28.5,91.3,28.6,91.2,28.6z"/>
<path class="st1" d="M85.4,11.6c0.2,0.1,0.3,0.1,0.5,0.2C85.7,11.8,85.5,11.7,85.4,11.6z"/>
<path class="st1" d="M34.8,17c0.8-0.6,1.6-1.1,2.4-1.6C36.4,15.9,35.6,16.4,34.8,17z"/>
<path class="st1" d="M32.4,18.8c0.6-0.4,1.1-0.9,1.7-1.3C33.5,18,32.9,18.4,32.4,18.8z"/>
<path class="st1" d="M43.4,12.1c0.7-0.3,1.4-0.6,2.1-0.9C44.8,11.5,44.1,11.8,43.4,12.1z"/>
<path class="st1" d="M40.7,13.4c0.6-0.3,1.2-0.6,1.8-0.9C41.9,12.8,41.3,13.1,40.7,13.4z"/>
<path class="st1" d="M29.9,20.9c0.6-0.5,1.1-1,1.7-1.5C31,19.9,30.5,20.4,29.9,20.9z"/>
<path class="st1" d="M37.6,15.2c0.7-0.5,1.5-0.9,2.2-1.3C39.1,14.3,38.3,14.7,37.6,15.2z"/>
<path class="st1" d="M20.8,31.8c0.6-0.9,1.2-1.7,1.8-2.6C22,30,21.4,30.9,20.8,31.8z"/>
<path class="st1" d="M81,16.3c-0.6-0.2-1.3-0.5-1.9-0.7C79.7,15.9,80.4,16.1,81,16.3z"/>
<path class="st1" d="M27.2,23.6c0.7-0.7,1.4-1.4,2.1-2.1C28.6,22.1,27.9,22.8,27.2,23.6z"/>
<path class="st1" d="M23.1,28.4c0.4-0.6,0.9-1.2,1.4-1.7C24,27.2,23.6,27.8,23.1,28.4z"/>
<path class="st1" d="M25.1,25.9c0.5-0.6,1-1.2,1.6-1.8C26.2,24.7,25.6,25.3,25.1,25.9z"/>
<path class="st1" d="M68.1,7.6c0.1,0,0.2,0,0.3,0C68.4,7.6,68.2,7.6,68.1,7.6z"/>
<path class="st1" d="M46.1,11c0.9-0.3,1.8-0.7,2.7-1C47.9,10.3,47,10.6,46.1,11z"/>
<path class="st1" d="M70.7,7.8c0.2,0,0.4,0,0.6,0.1C71.1,7.8,70.9,7.8,70.7,7.8z"/>
<path class="st1" d="M78.1,9.1c0.2,0.1,0.4,0.1,0.7,0.2C78.5,9.3,78.3,9.2,78.1,9.1z"/>
<path class="st1" d="M75.8,8.6c0.2,0,0.3,0.1,0.5,0.1C76.1,8.7,76,8.6,75.8,8.6z"/>
<path class="st1" d="M73,8.1c0.2,0,0.4,0.1,0.6,0.1C73.4,8.2,73.2,8.1,73,8.1z"/>
<path class="st1" d="M65.6,7.5c0.2,0,0.4,0,0.6,0C66,7.5,65.8,7.5,65.6,7.5z"/>
<path class="st1" d="M52.7,8.9c0.7-0.2,1.4-0.3,2-0.4C54,8.6,53.4,8.8,52.7,8.9z"/>
<path class="st1" d="M49.7,9.8c0.7-0.2,1.3-0.4,2-0.6C51,9.4,50.3,9.6,49.7,9.8z"/>
<path class="st1" d="M62.3,7.5c0.7,0,1.4-0.1,2.1-0.1C63.7,7.5,63,7.5,62.3,7.5z"/>
<path class="st1" d="M55.6,8.3c1-0.2,1.9-0.3,2.9-0.4C57.5,8,56.5,8.1,55.6,8.3z"/>
<path class="st1" d="M58.9,7.8c0.8-0.1,1.6-0.2,2.5-0.2C60.6,7.7,59.7,7.7,58.9,7.8z"/>
<path class="st1" d="M27.9,32c-0.2,0.2-0.3,0.4-0.5,0.7C27.6,32.4,27.8,32.2,27.9,32z"/>
<path class="st1" d="M31.1,28.2c0.1-0.1,0.3-0.3,0.4-0.4C31.4,27.9,31.3,28,31.1,28.2z"/>
<path class="st1" d="M38.3,21.9c-0.2,0.1-0.4,0.3-0.6,0.5C37.8,22.2,38.1,22.1,38.3,21.9z"/>
<path class="st1" d="M67.8,13.5c-0.6,0-1.1-0.1-1.7-0.1C66.6,13.5,67.2,13.5,67.8,13.5z"/>
<path class="st1" d="M70,13.7c-0.7-0.1-1.3-0.1-2-0.2C68.7,13.6,69.4,13.7,70,13.7z"/>
<path class="st1" d="M64.5,13.5c0.3,0,0.7,0,1,0c-0.2,0-0.3,0-0.5,0C64.8,13.5,64.6,13.5,64.5,13.5z"/>
<path class="st1" d="M51.4,15.5c-0.2,0.1-0.4,0.1-0.7,0.2C50.9,15.6,51.2,15.6,51.4,15.5z"/>
<path class="st1" d="M54.1,14.8c-0.3,0.1-0.6,0.1-0.8,0.2C53.5,14.9,53.8,14.8,54.1,14.8z"/>
<path class="st1" d="M59.6,13.8c-0.1,0-0.3,0-0.4,0C59.3,13.8,59.4,13.8,59.6,13.8z"/>
<path class="st1" d="M56.6,14.2c-0.2,0-0.5,0.1-0.7,0.1C56.2,14.3,56.4,14.3,56.6,14.2z"/>
<path class="st1" d="M33.9,25.4c-0.2,0.1-0.3,0.3-0.5,0.4C33.6,25.7,33.7,25.6,33.9,25.4z"/>
<path class="st1" d="M29.7,29.8c-0.2,0.2-0.4,0.5-0.6,0.7C29.3,30.2,29.5,30,29.7,29.8z"/>
<path class="st1" d="M62.6,13.5c-0.3,0-0.6,0-0.8,0C62.1,13.6,62.3,13.5,62.6,13.5z"/>
<path class="st1" d="M36.1,23.5c-0.2,0.2-0.5,0.4-0.7,0.5C35.7,23.9,35.9,23.7,36.1,23.5z"/>
<path class="st1" d="M72.1,14c-0.5-0.1-1-0.2-1.6-0.2C71.1,13.9,71.6,13.9,72.1,14z"/>
<path class="st1" d="M74.6,14.5c-0.7-0.1-1.3-0.3-2-0.4C73.3,14.2,73.9,14.3,74.6,14.5z"/>
<path class="st1" d="M76.6,14.9c-0.5-0.1-1.1-0.3-1.6-0.4C75.5,14.7,76,14.8,76.6,14.9z"/>
<path class="st1" d="M65,8C47.1,8,30.7,17,21.2,32c-7.3,11.6-9.7,25.4-6.8,38.7c0.3,1.1,1.3,2,2.4,2c0.2,0,0.4,0,0.5-0.1
	c0.7-0.1,1.2-0.5,1.6-1.1c0.4-0.6,0.5-1.2,0.3-1.9c-2.7-12.1-0.5-24.5,6.1-35C34,21.1,48.8,13,65,13c8.8,0,17.4,2.5,24.9,7.2
	c3.7,2.3,7,5.1,9.8,8.3l0.9,1l-1.4-0.2l-5.8-0.8c-0.1,0-0.2,0-0.4,0c-1.2,0-2.3,0.9-2.5,2.2c-0.1,0.7,0.1,1.3,0.5,1.9s1,0.9,1.6,1
	l12.5,1.8l0.1,0l0,0c0.3,0.1,0.5,0.1,0.8,0.1c0.1,0,0.2,0,0.2,0l0,0l0,0l0.1,0c0,0,0,0,0,0c1.3,0,2.3-0.9,2.5-2.2l1.9-13.5
	c0.1-0.7-0.1-1.3-0.5-1.9s-1-0.9-1.6-1c-0.1,0-0.2,0-0.4,0c-1.2,0-2.3,0.9-2.5,2.2l-1,6.8l-0.2,1.1l-0.7-0.8
	c-3.4-3.9-7.3-7.3-11.7-10.1C84.2,10.7,74.7,8,65,8l0-0.5c0,0,0,0,0,0L65,8z"/>
<path class="st1" d="M45.9,17.6c-0.3,0.1-0.5,0.2-0.8,0.4C45.4,17.8,45.6,17.7,45.9,17.6z"/>
<path class="st1" d="M78.9,15.6c-0.6-0.2-1.2-0.4-1.8-0.5C77.7,15.3,78.3,15.4,78.9,15.6z"/>
<path class="st1" d="M43.4,18.8c-0.2,0.1-0.5,0.2-0.7,0.4C43,19,43.2,18.9,43.4,18.8z"/>
<path class="st1" d="M40.6,20.4c-0.1,0-0.1,0.1-0.2,0.1C40.5,20.4,40.6,20.4,40.6,20.4z"/>
<path class="st1" d="M48.3,16.6c-0.1,0.1-0.3,0.1-0.4,0.2C48,16.7,48.1,16.6,48.3,16.6z"/>
</svg>
